<svg xmlns="http://www.w3.org/2000/svg" version="1.1" xmlns:xlink="http://www.w3.org/1999/xlink" xmlns:svgjs="http://svgjs.com/svgjs" width="1920" height="1080" preserveAspectRatio="none" viewBox="0 0 1920 1080"><g mask="url(&quot;#SvgjsMask1633&quot;)" fill="none"><rect width="1920" height="1080" x="0" y="0" fill="rgba(255, 255, 255, 1)"></rect><use xlink:href="#SvgjsG1638" transform="translate(0, 0)" fill="rgba(104, 104, 255, 0.4)"></use><use xlink:href="#SvgjsG1638" transform="translate(0, 672)" fill="rgba(104, 104, 255, 0.4)"></use><use xlink:href="#SvgjsG1638" transform="translate(672, 0)" fill="rgba(104, 104, 255, 0.4)"></use><use xlink:href="#SvgjsG1638" transform="translate(672, 672)" fill="rgba(104, 104, 255, 0.4)"></use><use xlink:href="#SvgjsG1638" transform="translate(1344, 0)" fill="rgba(104, 104, 255, 0.4)"></use><use xlink:href="#SvgjsG1638" transform="translate(1344, 672)" fill="rgba(104, 104, 255, 0.4)"></use></g><defs><mask id="SvgjsMask1633"><rect width="1920" height="1080" fill="#ffffff"></rect></mask><g id="SvgjsG1634"><path d="M5.51 14.18l7.68-3.27c2.39-1.01 3.36-3.51 2.44-5.68A4.27 4.27 0 0 0 10.03 2.97a4.26 4.26 0 0 0-5.58-2.27C2.27 1.63 1.23 4.1 2.25 6.48L5.51 14.18z"></path></g><g id="SvgjsG1635"><path d="M10.93 6.08c-0.44 1.08-1.67 1.6-2.75 1.16-1.08-0.44-1.6-1.66-1.16-2.74 0.44-1.08 1.66-1.6 2.74-1.17 1.08 0.44 1.6 1.66 1.17 2.75z"></path><path d="M10.89 0.54c0.87 0.35 2.14 1.29 2.58 2.47L11.58 4.63a2.73 2.73 0 0 0-1.61-1.8 2.73 2.73 0 0 0-2.39 0.16L7.29 0.57C8.58 0.02 9.99 0.17 10.89 0.54z m-1.1 1.83l0.61 0.25L10.6 2.11l0.51 0.21L11.35 1.71l-0.5-0.2 0.2-0.51-0.6-0.25-0.21 0.51-0.51-0.2L9.49 1.66l0.51 0.21-0.21 0.5z m-5.6 7.34l0.5 0.21L2.99 12.08l5.58 2.25 0.28-2.73 0.5 0.2-0.27 2.74 1.64 0.66L11.1 11.04c0.07-0.68-0.26-2.07-1.57-2.64l-3.05-1.24c-1.36-0.54-2.59 0.24-3.01 0.79L0.82 11.2l1.67 0.68 1.7-2.17zM-1.85 11.03l14.62 5.91L12.2 18.33-2.41 12.42z"></path></g><g id="SvgjsG1637"><path d="M8.41-0.46l5.15 2.08-1.96 4.85L16.45 8.43l-2.07 5.14L9.57 11.62 7.61 16.47l-5.17-2.09L4.39 9.53-0.46 7.57l2.08-5.13 4.83 1.95z"></path></g><g id="SvgjsG1636"><path d="M1.42 5.96l1.32 0.53c0.1 0.04 0.17 0.13 0.2 0.23 0 0 0.1 0.48 0.19 0.96 0.64-1.18 2.87-5.3 2.87-5.29a0.32 0.32 0 0 1 0.38-0.15c0.15 0.05 0.24 0.2 0.22 0.35 0 0-0.44 2.91-0.65 4.28l0.85-0.97a0.32 0.32 0 0 1 0.36-0.08c0.12 0.05 0.21 0.17 0.2 0.31 0 0-0.06 1.83-0.07 2.2l1.15 0.46c0.1 0.04 0.17 0.13 0.19 0.23 0 0 0.1 0.48 0.2 0.96 0.64-1.18 2.87-5.3 2.86-5.29a0.32 0.32 0 0 1 0.6 0.2s-0.44 2.9-0.64 4.27c0.42-0.48 0.85-0.96 0.85-0.96a0.32 0.32 0 0 1 0.56 0.23s-0.06 1.83-0.07 2.2l1.17 0.47 0.11-0.09c0.96-0.75 2.11-2.39 2.64-3.72C17.59 5.61 17.19 3.08 14.8 2.12c-3.41-1.38-5.14 1.64-5.14 1.64S10.52 0.41 7.11-0.97C4.81-1.9 2.78-0.44 2.08 1.3c-0.61 1.5-0.7 3.63-0.67 4.53l0.01 0.13z"></path><path d="M12.54 11.14a0.32 0.32 0 0 1-0.2-0.31S12.36 10.01 12.39 9.3c-0.46 0.52-0.98 1.11-0.98 1.11a0.32 0.32 0 0 1-0.38 0.07 0.32 0.32 0 0 1-0.18-0.33L11.39 6.61l-2.42 4.45a0.32 0.32 0 0 1-0.32 0.17 0.32 0.32 0 0 1-0.27-0.25s-0.28-1.38-0.34-1.66L6.84 8.84c-0.12-0.05-0.2-0.17-0.2-0.31l0.05-1.53-0.98 1.11A0.32 0.32 0 0 1 5.34 8.18a0.32 0.32 0 0 1-0.18-0.34s0.29-1.95 0.53-3.53c-0.94 1.74-2.41 4.46-2.41 4.45a0.32 0.32 0 0 1-0.6-0.09s-0.28-1.38-0.34-1.65L1.5 6.68c0.6 4.65 3.46 8.71 3.46 8.71S9.9 14.48 13.6 11.57l-1.06-0.43z"></path></g><g id="SvgjsG1638"><use xlink:href="#SvgjsG1634" transform="translate(0, 0) scale(1.6)" fill="rgba(104, 104, 255, 0.4)"></use><use xlink:href="#SvgjsG1635" transform="translate(0, 67.2) scale(1.6)" fill="rgba(104, 104, 255, 0.4)"></use><use xlink:href="#SvgjsG1634" transform="translate(0, 134.4) scale(1.6)" fill="rgba(104, 104, 255, 0.4)"></use><use xlink:href="#SvgjsG1635" transform="translate(0, 201.60000000000002) scale(1.6)" fill="rgba(104, 104, 255, 0.4)"></use><use xlink:href="#SvgjsG1635" transform="translate(0, 268.8) scale(1.6)" fill="rgba(104, 104, 255, 0.4)"></use><use xlink:href="#SvgjsG1636" transform="translate(0, 336) scale(1.6)" fill="rgba(104, 104, 255, 0.4)"></use><use xlink:href="#SvgjsG1634" transform="translate(0, 403.20000000000005) scale(1.6)" fill="rgba(104, 104, 255, 0.4)"></use><use xlink:href="#SvgjsG1637" transform="translate(0, 470.40000000000003) scale(1.6)" fill="rgba(104, 104, 255, 0.4)"></use><use xlink:href="#SvgjsG1637" transform="translate(0, 537.6) scale(1.6)" fill="rgba(104, 104, 255, 0.4)"></use><use xlink:href="#SvgjsG1635" transform="translate(0, 604.8000000000001) scale(1.6)" fill="rgba(104, 104, 255, 0.4)"></use><use xlink:href="#SvgjsG1636" transform="translate(67.2, 0) scale(1.6)" fill="rgba(104, 104, 255, 0.4)"></use><use xlink:href="#SvgjsG1636" transform="translate(67.2, 67.2) scale(1.6)" fill="rgba(104, 104, 255, 0.4)"></use><use xlink:href="#SvgjsG1636" transform="translate(67.2, 134.4) scale(1.6)" fill="rgba(104, 104, 255, 0.4)"></use><use xlink:href="#SvgjsG1636" transform="translate(67.2, 201.60000000000002) scale(1.6)" fill="rgba(104, 104, 255, 0.4)"></use><use xlink:href="#SvgjsG1635" transform="translate(67.2, 268.8) scale(1.6)" fill="rgba(104, 104, 255, 0.4)"></use><use xlink:href="#SvgjsG1635" transform="translate(67.2, 336) scale(1.6)" fill="rgba(104, 104, 255, 0.4)"></use><use xlink:href="#SvgjsG1635" transform="translate(67.2, 403.20000000000005) scale(1.6)" fill="rgba(104, 104, 255, 0.4)"></use><use xlink:href="#SvgjsG1636" transform="translate(67.2, 470.40000000000003) scale(1.6)" fill="rgba(104, 104, 255, 0.4)"></use><use xlink:href="#SvgjsG1636" transform="translate(67.2, 537.6) scale(1.6)" fill="rgba(104, 104, 255, 0.4)"></use><use xlink:href="#SvgjsG1634" transform="translate(67.2, 604.8000000000001) scale(1.6)" fill="rgba(104, 104, 255, 0.4)"></use><use xlink:href="#SvgjsG1635" transform="translate(134.4, 0) scale(1.6)" fill="rgba(104, 104, 255, 0.4)"></use><use xlink:href="#SvgjsG1635" transform="translate(134.4, 67.2) scale(1.6)" fill="rgba(104, 104, 255, 0.4)"></use><use xlink:href="#SvgjsG1636" transform="translate(134.4, 134.4) scale(1.6)" fill="rgba(104, 104, 255, 0.4)"></use><use xlink:href="#SvgjsG1637" transform="translate(134.4, 201.60000000000002) scale(1.6)" fill="rgba(104, 104, 255, 0.4)"></use><use xlink:href="#SvgjsG1635" transform="translate(134.4, 268.8) scale(1.6)" fill="rgba(104, 104, 255, 0.4)"></use><use xlink:href="#SvgjsG1635" transform="translate(134.4, 336) scale(1.6)" fill="rgba(104, 104, 255, 0.4)"></use><use xlink:href="#SvgjsG1636" transform="translate(134.4, 403.20000000000005) scale(1.6)" fill="rgba(104, 104, 255, 0.4)"></use><use xlink:href="#SvgjsG1636" transform="translate(134.4, 470.40000000000003) scale(1.6)" fill="rgba(104, 104, 255, 0.4)"></use><use xlink:href="#SvgjsG1635" transform="translate(134.4, 537.6) scale(1.6)" fill="rgba(104, 104, 255, 0.4)"></use><use xlink:href="#SvgjsG1634" transform="translate(134.4, 604.8000000000001) scale(1.6)" fill="rgba(104, 104, 255, 0.4)"></use><use xlink:href="#SvgjsG1635" transform="translate(201.60000000000002, 0) scale(1.6)" fill="rgba(104, 104, 255, 0.4)"></use><use xlink:href="#SvgjsG1634" transform="translate(201.60000000000002, 67.2) scale(1.6)" fill="rgba(104, 104, 255, 0.4)"></use><use xlink:href="#SvgjsG1637" transform="translate(201.60000000000002, 134.4) scale(1.6)" fill="rgba(104, 104, 255, 0.4)"></use><use xlink:href="#SvgjsG1635" transform="translate(201.60000000000002, 201.60000000000002) scale(1.6)" fill="rgba(104, 104, 255, 0.4)"></use><use xlink:href="#SvgjsG1636" transform="translate(201.60000000000002, 268.8) scale(1.6)" fill="rgba(104, 104, 255, 0.4)"></use><use xlink:href="#SvgjsG1634" transform="translate(201.60000000000002, 336) scale(1.6)" fill="rgba(104, 104, 255, 0.4)"></use><use xlink:href="#SvgjsG1637" transform="translate(201.60000000000002, 403.20000000000005) scale(1.6)" fill="rgba(104, 104, 255, 0.4)"></use><use xlink:href="#SvgjsG1634" transform="translate(201.60000000000002, 470.40000000000003) scale(1.6)" fill="rgba(104, 104, 255, 0.4)"></use><use xlink:href="#SvgjsG1637" transform="translate(201.60000000000002, 537.6) scale(1.6)" fill="rgba(104, 104, 255, 0.4)"></use><use xlink:href="#SvgjsG1637" transform="translate(201.60000000000002, 604.8000000000001) scale(1.6)" fill="rgba(104, 104, 255, 0.4)"></use><use xlink:href="#SvgjsG1635" transform="translate(268.8, 0) scale(1.6)" fill="rgba(104, 104, 255, 0.4)"></use><use xlink:href="#SvgjsG1637" transform="translate(268.8, 67.2) scale(1.6)" fill="rgba(104, 104, 255, 0.4)"></use><use xlink:href="#SvgjsG1636" transform="translate(268.8, 134.4) scale(1.6)" fill="rgba(104, 104, 255, 0.4)"></use><use xlink:href="#SvgjsG1636" transform="translate(268.8, 201.60000000000002) scale(1.6)" fill="rgba(104, 104, 255, 0.4)"></use><use xlink:href="#SvgjsG1636" transform="translate(268.8, 268.8) scale(1.6)" fill="rgba(104, 104, 255, 0.4)"></use><use xlink:href="#SvgjsG1634" transform="translate(268.8, 336) scale(1.6)" fill="rgba(104, 104, 255, 0.4)"></use><use xlink:href="#SvgjsG1635" transform="translate(268.8, 403.20000000000005) scale(1.6)" fill="rgba(104, 104, 255, 0.4)"></use><use xlink:href="#SvgjsG1636" transform="translate(268.8, 470.40000000000003) scale(1.6)" fill="rgba(104, 104, 255, 0.4)"></use><use xlink:href="#SvgjsG1636" transform="translate(268.8, 537.6) scale(1.6)" fill="rgba(104, 104, 255, 0.4)"></use><use xlink:href="#SvgjsG1637" transform="translate(268.8, 604.8000000000001) scale(1.6)" fill="rgba(104, 104, 255, 0.4)"></use><use xlink:href="#SvgjsG1636" transform="translate(336, 0) scale(1.6)" fill="rgba(104, 104, 255, 0.4)"></use><use xlink:href="#SvgjsG1637" transform="translate(336, 67.2) scale(1.6)" fill="rgba(104, 104, 255, 0.4)"></use><use xlink:href="#SvgjsG1637" transform="translate(336, 134.4) scale(1.6)" fill="rgba(104, 104, 255, 0.4)"></use><use xlink:href="#SvgjsG1635" transform="translate(336, 201.60000000000002) scale(1.6)" fill="rgba(104, 104, 255, 0.4)"></use><use xlink:href="#SvgjsG1634" transform="translate(336, 268.8) scale(1.6)" fill="rgba(104, 104, 255, 0.4)"></use><use xlink:href="#SvgjsG1634" transform="translate(336, 336) scale(1.6)" fill="rgba(104, 104, 255, 0.4)"></use><use xlink:href="#SvgjsG1637" transform="translate(336, 403.20000000000005) scale(1.6)" fill="rgba(104, 104, 255, 0.4)"></use><use xlink:href="#SvgjsG1636" transform="translate(336, 470.40000000000003) scale(1.6)" fill="rgba(104, 104, 255, 0.4)"></use><use xlink:href="#SvgjsG1635" transform="translate(336, 537.6) scale(1.6)" fill="rgba(104, 104, 255, 0.4)"></use><use xlink:href="#SvgjsG1637" transform="translate(336, 604.8000000000001) scale(1.6)" fill="rgba(104, 104, 255, 0.4)"></use><use xlink:href="#SvgjsG1635" transform="translate(403.20000000000005, 0) scale(1.6)" fill="rgba(104, 104, 255, 0.4)"></use><use xlink:href="#SvgjsG1636" transform="translate(403.20000000000005, 67.2) scale(1.6)" fill="rgba(104, 104, 255, 0.4)"></use><use xlink:href="#SvgjsG1634" transform="translate(403.20000000000005, 134.4) scale(1.6)" fill="rgba(104, 104, 255, 0.4)"></use><use xlink:href="#SvgjsG1635" transform="translate(403.20000000000005, 201.60000000000002) scale(1.6)" fill="rgba(104, 104, 255, 0.4)"></use><use xlink:href="#SvgjsG1637" transform="translate(403.20000000000005, 268.8) scale(1.6)" fill="rgba(104, 104, 255, 0.4)"></use><use xlink:href="#SvgjsG1635" transform="translate(403.20000000000005, 336) scale(1.6)" fill="rgba(104, 104, 255, 0.4)"></use><use xlink:href="#SvgjsG1636" transform="translate(403.20000000000005, 403.20000000000005) scale(1.6)" fill="rgba(104, 104, 255, 0.4)"></use><use xlink:href="#SvgjsG1636" transform="translate(403.20000000000005, 470.40000000000003) scale(1.6)" fill="rgba(104, 104, 255, 0.4)"></use><use xlink:href="#SvgjsG1634" transform="translate(403.20000000000005, 537.6) scale(1.6)" fill="rgba(104, 104, 255, 0.4)"></use><use xlink:href="#SvgjsG1636" transform="translate(403.20000000000005, 604.8000000000001) scale(1.6)" fill="rgba(104, 104, 255, 0.4)"></use><use xlink:href="#SvgjsG1637" transform="translate(470.40000000000003, 0) scale(1.6)" fill="rgba(104, 104, 255, 0.4)"></use><use xlink:href="#SvgjsG1636" transform="translate(470.40000000000003, 67.2) scale(1.6)" fill="rgba(104, 104, 255, 0.4)"></use><use xlink:href="#SvgjsG1635" transform="translate(470.40000000000003, 134.4) scale(1.6)" fill="rgba(104, 104, 255, 0.4)"></use><use xlink:href="#SvgjsG1637" transform="translate(470.40000000000003, 201.60000000000002) scale(1.6)" fill="rgba(104, 104, 255, 0.4)"></use><use xlink:href="#SvgjsG1637" transform="translate(470.40000000000003, 268.8) scale(1.6)" fill="rgba(104, 104, 255, 0.4)"></use><use xlink:href="#SvgjsG1636" transform="translate(470.40000000000003, 336) scale(1.6)" fill="rgba(104, 104, 255, 0.4)"></use><use xlink:href="#SvgjsG1636" transform="translate(470.40000000000003, 403.20000000000005) scale(1.6)" fill="rgba(104, 104, 255, 0.4)"></use><use xlink:href="#SvgjsG1637" transform="translate(470.40000000000003, 470.40000000000003) scale(1.6)" fill="rgba(104, 104, 255, 0.4)"></use><use xlink:href="#SvgjsG1636" transform="translate(470.40000000000003, 537.6) scale(1.6)" fill="rgba(104, 104, 255, 0.4)"></use><use xlink:href="#SvgjsG1637" transform="translate(470.40000000000003, 604.8000000000001) scale(1.6)" fill="rgba(104, 104, 255, 0.4)"></use><use xlink:href="#SvgjsG1637" transform="translate(537.6, 0) scale(1.6)" fill="rgba(104, 104, 255, 0.4)"></use><use xlink:href="#SvgjsG1634" transform="translate(537.6, 67.2) scale(1.6)" fill="rgba(104, 104, 255, 0.4)"></use><use xlink:href="#SvgjsG1636" transform="translate(537.6, 134.4) scale(1.6)" fill="rgba(104, 104, 255, 0.4)"></use><use xlink:href="#SvgjsG1635" transform="translate(537.6, 201.60000000000002) scale(1.6)" fill="rgba(104, 104, 255, 0.4)"></use><use xlink:href="#SvgjsG1636" transform="translate(537.6, 268.8) scale(1.6)" fill="rgba(104, 104, 255, 0.4)"></use><use xlink:href="#SvgjsG1637" transform="translate(537.6, 336) scale(1.6)" fill="rgba(104, 104, 255, 0.4)"></use><use xlink:href="#SvgjsG1634" transform="translate(537.6, 403.20000000000005) scale(1.6)" fill="rgba(104, 104, 255, 0.4)"></use><use xlink:href="#SvgjsG1636" transform="translate(537.6, 470.40000000000003) scale(1.6)" fill="rgba(104, 104, 255, 0.4)"></use><use xlink:href="#SvgjsG1637" transform="translate(537.6, 537.6) scale(1.6)" fill="rgba(104, 104, 255, 0.4)"></use><use xlink:href="#SvgjsG1636" transform="translate(537.6, 604.8000000000001) scale(1.6)" fill="rgba(104, 104, 255, 0.4)"></use><use xlink:href="#SvgjsG1634" transform="translate(604.8000000000001, 0) scale(1.6)" fill="rgba(104, 104, 255, 0.4)"></use><use xlink:href="#SvgjsG1635" transform="translate(604.8000000000001, 67.2) scale(1.6)" fill="rgba(104, 104, 255, 0.4)"></use><use xlink:href="#SvgjsG1636" transform="translate(604.8000000000001, 134.4) scale(1.6)" fill="rgba(104, 104, 255, 0.4)"></use><use xlink:href="#SvgjsG1635" transform="translate(604.8000000000001, 201.60000000000002) scale(1.6)" fill="rgba(104, 104, 255, 0.4)"></use><use xlink:href="#SvgjsG1637" transform="translate(604.8000000000001, 268.8) scale(1.6)" fill="rgba(104, 104, 255, 0.4)"></use><use xlink:href="#SvgjsG1635" transform="translate(604.8000000000001, 336) scale(1.6)" fill="rgba(104, 104, 255, 0.4)"></use><use xlink:href="#SvgjsG1636" transform="translate(604.8000000000001, 403.20000000000005) scale(1.6)" fill="rgba(104, 104, 255, 0.4)"></use><use xlink:href="#SvgjsG1636" transform="translate(604.8000000000001, 470.40000000000003) scale(1.6)" fill="rgba(104, 104, 255, 0.4)"></use><use xlink:href="#SvgjsG1634" transform="translate(604.8000000000001, 537.6) scale(1.6)" fill="rgba(104, 104, 255, 0.4)"></use><use xlink:href="#SvgjsG1635" transform="translate(604.8000000000001, 604.8000000000001) scale(1.6)" fill="rgba(104, 104, 255, 0.4)"></use></g></defs></svg>